# xmcd
#
# Track frame offsets:
#	150
#	23316
#	42170
#	67025
#	89445
#	113549
#	128906
#	144607
#	160783
#	180034
#	200985
#	224817
#	246579
#	266406
#	290727
#
# Disc length: 4213
#
# Revision: 1
# Processed by: cddbd v1.5.1PL0 Copyright (c) Steve Scherf et al.
# Submitted via: FreeRIP 2.90 
# Normalized: r0:DSETVAR1,TDELIM( - )
#
DISCID=e110730f
DTITLE=Various Artist - Saturday Night Party
DYEAR=1999
DGENRE=Dance
TTITLE0=Village People - Y.M.C.A.
TTITLE1=Lipps Inc. - Funky Town
TTITLE2=Michael Zager Band - Let's all chant
TTITLE3=Donna Summer - Hot Stuff
TTITLE4=Earth Wind and Fire - Let's groove tonight
TTITLE5=Johnny Wakelin - In Zaire
TTITLE6=Leon Haywood - Don't push it
TTITLE7=Delegation - You and I
TTITLE8=Patrice Rushen - Forget me nots
TTITLE9=Brothers Johnson - Stomp
TTITLE10=War - You got the power
TTITLE11=Bobby Thurston - Check out the groove
TTITLE12=Sylvester - You make me feel
TTITLE13=Pointer Sisters - I'm so exited
TTITLE14=Gibson Brothers - Oh what a life
EXTD=
EXTT0=
EXTT1=
EXTT2=
EXTT3=
EXTT4=
EXTT5=
EXTT6=
EXTT7=
EXTT8=
EXTT9=
EXTT10=
EXTT11=
EXTT12=
EXTT13=
EXTT14=
PLAYORDER=
